<?xml version="1.0" standalone="no"?>
<!DOCTYPE svg PUBLIC "-//W3C//DTD SVG 20010904//EN"
 "http://www.w3.org/TR/2001/REC-SVG-20010904/DTD/svg10.dtd">
<svg version="1.0" xmlns="http://www.w3.org/2000/svg"
 width="524.000000pt" height="524.000000pt" viewBox="0 0 524.000000 524.000000"
 preserveAspectRatio="xMidYMid meet">
<metadata>
Created by potrace 1.14, written by Peter Selinger 2001-2017
</metadata>
<g transform="translate(0.000000,524.000000) scale(0.100000,-0.100000)"
fill="#000000" stroke="none">
<path d="M994 3151 c-48 -29 -70 -65 -83 -133 -7 -35 -21 -101 -31 -148 -24
-105 -70 -324 -76 -365 -3 -16 -9 -43 -14 -59 -6 -16 -10 -39 -10 -51 0 -38
-50 -123 -85 -145 -40 -24 -132 -26 -127 -2 1 8 -2 11 -7 7 -18 -11 -33 35
-25 78 19 112 -11 163 -92 160 -96 -3 -156 -89 -158 -223 0 -59 4 -84 21 -115
50 -94 113 -126 261 -133 105 -5 184 10 240 45 12 7 28 11 34 7 7 -4 8 -3 4 4
-4 7 -3 12 3 12 14 0 121 106 121 120 0 6 4 8 10 5 5 -3 12 7 16 22 3 15 14
53 24 83 18 53 30 99 35 130 12 76 76 363 85 380 6 11 9 24 6 28 -3 5 4 42 14
83 35 134 27 199 -26 219 -41 16 -107 11 -140 -9z"/>
<path d="M3190 3132 c-47 -26 -77 -71 -90 -140 -20 -100 -101 -482 -130 -617
-52 -230 -52 -283 0 -310 47 -24 461 -22 561 4 288 74 478 352 479 702 0 148
-42 245 -133 306 -89 60 -126 66 -402 70 -231 4 -253 3 -285 -15z m485 -227
c70 -57 90 -157 60 -300 -8 -38 -22 -84 -30 -102 -8 -18 -23 -50 -32 -70 -9
-20 -41 -60 -71 -90 -71 -69 -116 -83 -277 -83 l-121 0 43 198 c23 108 45 211
48 227 14 74 37 183 46 218 l10 39 144 -4 c142 -3 143 -3 180 -33z"/>
<path d="M4344 3136 c-59 -26 -80 -69 -114 -226 -17 -80 -35 -164 -40 -186 -5
-23 -19 -86 -29 -140 -11 -55 -36 -175 -56 -269 -21 -101 -33 -181 -29 -198 3
-17 19 -36 37 -48 29 -17 53 -19 287 -19 281 0 326 6 432 60 71 36 110 70 147
129 68 107 81 265 28 335 -16 20 -42 43 -58 52 l-31 15 44 28 c85 55 130 127
143 226 15 111 -38 193 -150 230 -53 17 -91 20 -320 22 -205 2 -267 0 -291
-11z m421 -189 c54 -21 66 -33 72 -69 8 -54 -26 -118 -80 -149 -38 -21 -55
-24 -174 -26 -108 -2 -133 0 -133 11 0 15 35 185 46 224 6 21 10 22 123 21 64
0 130 -6 146 -12z m-46 -433 c73 -29 87 -109 33 -188 -40 -59 -94 -74 -265
-75 l-137 -1 4 23 c3 12 15 75 27 140 l22 117 138 0 c103 0 149 -4 178 -16z"/>
<path d="M1532 2845 c-40 -14 -89 -36 -110 -49 -218 -140 -312 -482 -181 -653
72 -94 231 -137 389 -107 100 19 155 38 205 72 49 33 62 47 81 91 20 43 10 85
-25 111 -36 25 -70 16 -158 -41 -105 -69 -222 -72 -285 -7 -29 30 -44 83 -33
117 6 21 11 21 281 21 l275 0 23 25 c27 29 46 94 46 154 0 106 -58 205 -146
250 -69 35 -66 35 -184 38 -91 3 -114 0 -178 -22z m234 -177 c29 -27 35 -41
37 -78 l2 -45 -177 0 -176 -1 21 39 c25 44 84 95 125 107 15 5 51 9 80 9 46 1
57 -3 88 -31z"/>
<path d="M2420 2863 c-14 -3 -53 -18 -88 -34 -155 -70 -236 -240 -167 -350 40
-62 72 -77 272 -129 91 -24 119 -43 118 -80 0 -31 -49 -65 -105 -74 -63 -10
-112 8 -158 58 -54 58 -81 76 -115 76 -65 0 -107 -52 -107 -133 0 -51 53 -109
128 -139 50 -20 75 -22 192 -22 156 0 212 16 299 85 114 91 147 268 64 341
-32 28 -126 65 -223 88 -111 26 -140 42 -140 74 0 48 72 81 153 70 26 -3 55
-13 64 -22 9 -10 32 -29 51 -44 76 -61 181 -17 182 75 0 66 -21 92 -110 135
-48 23 -69 26 -170 28 -63 1 -126 0 -140 -3z"/>
</g>
</svg>
